<svg xmlns="http://www.w3.org/2000/svg" width="720" height="552" viewBox="0 0 720 552" fill="none">
<style>text{font-family:ui-monospace, 'SF Mono', SFMono-Regular, Menlo, Consolas, 'DejaVu Sans Mono', 'Liberation Mono', monospace;}</style>
<defs>
<pattern id="grid" width="24" height="24" patternUnits="userSpaceOnUse">
<path d="M24 0H0V24" stroke="#30435E" stroke-width="0.6" opacity="0.45"/>
</pattern>
<pattern id="scan" width="4" height="4" patternUnits="userSpaceOnUse">
<rect width="4" height="1" fill="#EDF5FF" opacity="0.025"/>
</pattern>
<filter id="glow" x="-20%" y="-20%" width="140%" height="140%">
<feGaussianBlur stdDeviation="3" result="b"/>
<feMerge><feMergeNode in="b"/><feMergeNode in="SourceGraphic"/></feMerge>
</filter>
<filter id="soft" x="-10%" y="-10%" width="120%" height="120%">
<feGaussianBlur stdDeviation="4"/>
</filter>
<radialGradient id="vig" cx="0.5" cy="0.45" r="0.75">
<stop offset="0.6" stop-color="#070A10" stop-opacity="0"/>
<stop offset="1" stop-color="#000000" stop-opacity="0.55"/>
</radialGradient>
<linearGradient id="sweep" x1="0" x2="0" y1="0" y2="1">
<stop offset="0" stop-color="#EDF5FF" stop-opacity="0"/>
<stop offset="0.5" stop-color="#EDF5FF" stop-opacity="0.045"/>
<stop offset="1" stop-color="#EDF5FF" stop-opacity="0"/>
</linearGradient>
<linearGradient id="fadeR" x1="0" x2="1" y1="0" y2="0">
<stop offset="0" stop-color="#2D8CFF" stop-opacity="0.9"/>
<stop offset="1" stop-color="#2D8CFF" stop-opacity="0"/>
</linearGradient>
<linearGradient id="fadeP" x1="0" x2="1" y1="0" y2="0">
<stop offset="0" stop-color="#FF4FCB" stop-opacity="0"/>
<stop offset="0.5" stop-color="#FF4FCB" stop-opacity="0.9"/>
<stop offset="1" stop-color="#FF4FCB" stop-opacity="0"/>
</linearGradient>
<linearGradient id="reflect" x1="0" x2="0" y1="0" y2="1">
<stop offset="0" stop-color="#FF4FCB" stop-opacity="0.28"/>
<stop offset="1" stop-color="#FF4FCB" stop-opacity="0"/>
</linearGradient>
<linearGradient id="sky" x1="0" x2="0" y1="0" y2="1">
<stop offset="0" stop-color="#070A10"/>
<stop offset="1" stop-color="#0E1830"/>
</linearGradient>
</defs>
<rect width="720" height="552" fill="#070A10"/>
<rect x="16" y="16" width="688" height="520" fill="#070A10"/>
<rect x="16" y="16" width="688" height="520" fill="none" stroke="#2D8CFF" stroke-width="3" opacity="0.35" filter="url(#soft)"/>
<rect x="16" y="16" width="688" height="520" fill="none" stroke="#2D8CFF" stroke-width="1.4"/>
<rect x="32" y="3" width="544.0" height="26" fill="#070A10"/>
<text x="38" y="23" font-size="20" fill="#2D8CFF" font-weight="bold" text-anchor="start">[ weather.signal :: atmospheric-uplink ]</text>
<circle cx="534" cy="16" r="3.6" fill="#C6FF3A"><animate attributeName="opacity" values="1;0.35;1" dur="2.6s" begin="0.0s" repeatCount="indefinite"/></circle>
<circle cx="547" cy="16" r="3.6" fill="#2D8CFF"><animate attributeName="opacity" values="1;0.35;1" dur="3.4s" begin="0.4s" repeatCount="indefinite"/></circle>
<circle cx="560" cy="16" r="3.6" fill="#30435E"></circle>
<rect x="556.0" y="3" width="132.0" height="26" fill="#070A10"/>
<text x="682" y="23" font-size="20" fill="#A7B8CE" font-weight="normal" text-anchor="end">[ zürich ]</text>
<rect x="17" y="17" width="686" height="518" fill="url(#vig)"/>
<line x1="18" y1="64" x2="25" y2="64" stroke="#2D8CFF" stroke-width="1" opacity="0.8"/>
<line x1="702" y1="64" x2="695" y2="64" stroke="#2D8CFF" stroke-width="1" opacity="0.8"/>
<line x1="18" y1="88" x2="22" y2="88" stroke="#30435E" stroke-width="1" opacity="0.8"/>
<line x1="702" y1="88" x2="698" y2="88" stroke="#30435E" stroke-width="1" opacity="0.8"/>
<line x1="18" y1="112" x2="22" y2="112" stroke="#30435E" stroke-width="1" opacity="0.8"/>
<line x1="702" y1="112" x2="698" y2="112" stroke="#30435E" stroke-width="1" opacity="0.8"/>
<line x1="18" y1="136" x2="22" y2="136" stroke="#30435E" stroke-width="1" opacity="0.8"/>
<line x1="702" y1="136" x2="698" y2="136" stroke="#30435E" stroke-width="1" opacity="0.8"/>
<line x1="18" y1="160" x2="25" y2="160" stroke="#2D8CFF" stroke-width="1" opacity="0.8"/>
<line x1="702" y1="160" x2="695" y2="160" stroke="#2D8CFF" stroke-width="1" opacity="0.8"/>
<line x1="18" y1="184" x2="22" y2="184" stroke="#30435E" stroke-width="1" opacity="0.8"/>
<line x1="702" y1="184" x2="698" y2="184" stroke="#30435E" stroke-width="1" opacity="0.8"/>
<line x1="18" y1="208" x2="22" y2="208" stroke="#30435E" stroke-width="1" opacity="0.8"/>
<line x1="702" y1="208" x2="698" y2="208" stroke="#30435E" stroke-width="1" opacity="0.8"/>
<line x1="18" y1="232" x2="22" y2="232" stroke="#30435E" stroke-width="1" opacity="0.8"/>
<line x1="702" y1="232" x2="698" y2="232" stroke="#30435E" stroke-width="1" opacity="0.8"/>
<line x1="18" y1="256" x2="25" y2="256" stroke="#2D8CFF" stroke-width="1" opacity="0.8"/>
<line x1="702" y1="256" x2="695" y2="256" stroke="#2D8CFF" stroke-width="1" opacity="0.8"/>
<line x1="18" y1="280" x2="22" y2="280" stroke="#30435E" stroke-width="1" opacity="0.8"/>
<line x1="702" y1="280" x2="698" y2="280" stroke="#30435E" stroke-width="1" opacity="0.8"/>
<line x1="18" y1="304" x2="22" y2="304" stroke="#30435E" stroke-width="1" opacity="0.8"/>
<line x1="702" y1="304" x2="698" y2="304" stroke="#30435E" stroke-width="1" opacity="0.8"/>
<line x1="18" y1="328" x2="22" y2="328" stroke="#30435E" stroke-width="1" opacity="0.8"/>
<line x1="702" y1="328" x2="698" y2="328" stroke="#30435E" stroke-width="1" opacity="0.8"/>
<line x1="18" y1="352" x2="25" y2="352" stroke="#2D8CFF" stroke-width="1" opacity="0.8"/>
<line x1="702" y1="352" x2="695" y2="352" stroke="#2D8CFF" stroke-width="1" opacity="0.8"/>
<line x1="18" y1="376" x2="22" y2="376" stroke="#30435E" stroke-width="1" opacity="0.8"/>
<line x1="702" y1="376" x2="698" y2="376" stroke="#30435E" stroke-width="1" opacity="0.8"/>
<line x1="18" y1="400" x2="22" y2="400" stroke="#30435E" stroke-width="1" opacity="0.8"/>
<line x1="702" y1="400" x2="698" y2="400" stroke="#30435E" stroke-width="1" opacity="0.8"/>
<line x1="18" y1="424" x2="22" y2="424" stroke="#30435E" stroke-width="1" opacity="0.8"/>
<line x1="702" y1="424" x2="698" y2="424" stroke="#30435E" stroke-width="1" opacity="0.8"/>
<line x1="18" y1="448" x2="25" y2="448" stroke="#2D8CFF" stroke-width="1" opacity="0.8"/>
<line x1="702" y1="448" x2="695" y2="448" stroke="#2D8CFF" stroke-width="1" opacity="0.8"/>
<line x1="18" y1="472" x2="22" y2="472" stroke="#30435E" stroke-width="1" opacity="0.8"/>
<line x1="702" y1="472" x2="698" y2="472" stroke="#30435E" stroke-width="1" opacity="0.8"/>
<line x1="18" y1="496" x2="22" y2="496" stroke="#30435E" stroke-width="1" opacity="0.8"/>
<line x1="702" y1="496" x2="698" y2="496" stroke="#30435E" stroke-width="1" opacity="0.8"/>
<rect x="628" y="34" width="4" height="6" fill="#2D8CFF" opacity="0.75"><animate attributeName="height" values="4;9;5;4" dur="2.2s" repeatCount="indefinite"/></rect>
<rect x="635" y="34" width="4" height="6" fill="#2D8CFF" opacity="0.75"><animate attributeName="height" values="7;4;10;7" dur="1.8s" repeatCount="indefinite"/></rect>
<rect x="642" y="34" width="4" height="6" fill="#2D8CFF" opacity="0.75"><animate attributeName="height" values="5;11;6;5" dur="2.6s" repeatCount="indefinite"/></rect>
<rect x="649" y="34" width="4" height="6" fill="#2D8CFF" opacity="0.75"><animate attributeName="height" values="9;5;8;9" dur="2.0s" repeatCount="indefinite"/></rect>
<rect x="656" y="34" width="4" height="6" fill="#2D8CFF" opacity="0.75"><animate attributeName="height" values="3;7;4;3" dur="2.4s" repeatCount="indefinite"/></rect>
<line x1="626" y1="46" x2="664" y2="46" stroke="#30435E" stroke-width="1"/>
<path d="M26 40V30H36" stroke="#30435E" stroke-width="1.2" opacity="0.9"/><path d="M694 40V30H684" stroke="#30435E" stroke-width="1.2" opacity="0.9"/><path d="M26 520V530H36" stroke="#30435E" stroke-width="1.2" opacity="0.9"/><path d="M694 520V530H684" stroke="#30435E" stroke-width="1.2" opacity="0.9"/>
<line x1="675" y1="98" x2="685" y2="98" stroke="#30435E" stroke-width="1"/><line x1="680" y1="93" x2="680" y2="103" stroke="#30435E" stroke-width="1"/>
<line x1="675" y1="428" x2="685" y2="428" stroke="#30435E" stroke-width="1"/><line x1="680" y1="423" x2="680" y2="433" stroke="#30435E" stroke-width="1"/>
<text x="36" y="70" font-size="21" fill="#C6FF3A" font-weight="bold" text-anchor="start">snowyarch@zurich:~$</text>
<clipPath id="k31"><rect x="288.0" y="49" width="163.8" height="29.4"><animate attributeName="width" dur="1.475s" calcMode="discrete" keyTimes="0;0.4068;0.4492;0.4915;0.5339;0.5763;0.6186;0.661;0.7034;0.7458;0.7881;0.8305;0.8729;0.9153;0.9576" values="0;0;12.6;25.2;37.8;50.4;63;75.6;88.2;100.8;113.4;126;138.6;151.2;163.8"/></rect></clipPath>
<text x="288.0" y="70" font-size="21" fill="#EDF5FF" font-weight="normal" textLength="163.8" lengthAdjust="spacing" clip-path="url(#k31)">weather --now</text>
<rect x="288.0" y="53.2" width="11.34" height="21" fill="#C6FF3A" opacity="0"><animate attributeName="x" dur="1.475s" calcMode="discrete" keyTimes="0;0.4068;0.4492;0.4915;0.5339;0.5763;0.6186;0.661;0.7034;0.7458;0.7881;0.8305;0.8729;0.9153;0.9576" values="288;288;300.6;313.2;325.8;338.4;351;363.6;376.2;388.8;401.4;414;426.6;439.2;451.8"/><animate attributeName="opacity" dur="1.475s" calcMode="discrete" keyTimes="0;0.4068" values="0;1"/></rect>
<g><set attributeName="opacity" to="0" begin="0s" dur="1.8625s"/><rect x="32" y="98" width="250" height="252" fill="url(#grid)" opacity="0.6"/><rect x="32" y="98" width="250" height="252" fill="none" stroke="#30435E" stroke-width="1"/><text x="308" y="122" font-size="22" fill="#FF4FCB" font-weight="bold" text-anchor="start">ZÜRICH, CH</text><text x="308" y="142" font-size="19" fill="#30435E" font-weight="normal" text-anchor="start">--------------</text><g><text x="40" y="140" font-size="15" fill="#A7B8CE" xml:space="preserve">         .-~~~~-.</text><text x="40" y="157" font-size="15" fill="#A7B8CE" xml:space="preserve">   .-~~-(        )~-.</text><text x="40" y="174" font-size="15" fill="#A7B8CE" xml:space="preserve">  (                  )~.</text><text x="40" y="191" font-size="15" fill="#A7B8CE" xml:space="preserve"> (  .                   )</text><text x="40" y="208" font-size="15" fill="#A7B8CE" xml:space="preserve">  '~-.______________.-~'</text><animateTransform attributeName="transform" type="translate" values="0 0;14 0;0 0" dur="14s" repeatCount="indefinite"/></g><line x1="36" y1="324" x2="96" y2="324" stroke="#30435E" stroke-width="1.4" stroke-dasharray="10 8"><animateTransform attributeName="transform" type="translate" values="0 0;170 0" dur="11.2s" repeatCount="indefinite"/></line><line x1="36" y1="332" x2="96" y2="332" stroke="#30435E" stroke-width="1.4" stroke-dasharray="10 8"><animateTransform attributeName="transform" type="translate" values="0 0;170 0" dur="12.2s" repeatCount="indefinite"/></line><line x1="36" y1="340" x2="96" y2="340" stroke="#30435E" stroke-width="1.4" stroke-dasharray="10 8"><animateTransform attributeName="transform" type="translate" values="0 0;170 0" dur="13.2s" repeatCount="indefinite"/></line><text x="308" y="180" font-size="26" fill="#EDF5FF" font-weight="bold" text-anchor="start">OVERCAST</text><text x="308" y="212" font-size="17" fill="#2D8CFF" font-weight="bold" text-anchor="start">temp:</text><text x="410" y="212" font-size="17" fill="#C6FF3A" font-weight="normal" text-anchor="start">12°C</text><text x="308" y="234" font-size="17" fill="#2D8CFF" font-weight="bold" text-anchor="start">feels:</text><text x="410" y="234" font-size="17" fill="#EDF5FF" font-weight="normal" text-anchor="start">12°C</text><text x="308" y="256" font-size="17" fill="#2D8CFF" font-weight="bold" text-anchor="start">humidity:</text><text x="410" y="256" font-size="17" fill="#EDF5FF" font-weight="normal" text-anchor="start">75%</text><text x="308" y="278" font-size="17" fill="#2D8CFF" font-weight="bold" text-anchor="start">wind:</text><text x="410" y="278" font-size="17" fill="#EDF5FF" font-weight="normal" text-anchor="start">3 km/h SW</text><text x="308" y="300" font-size="17" fill="#2D8CFF" font-weight="bold" text-anchor="start">pressure:</text><text x="410" y="300" font-size="17" fill="#EDF5FF" font-weight="normal" text-anchor="start">1020 hPa</text><text x="308" y="322" font-size="17" fill="#2D8CFF" font-weight="bold" text-anchor="start">cloud:</text><text x="410" y="322" font-size="17" fill="#EDF5FF" font-weight="normal" text-anchor="start">100%</text><text x="308" y="344" font-size="17" fill="#2D8CFF" font-weight="bold" text-anchor="start">cycle:</text><text x="410" y="344" font-size="17" fill="#FF4FCB" font-weight="normal" text-anchor="start">NIGHT</text><rect x="666" y="156" width="10" height="150" fill="#070A10" stroke="#30435E" stroke-width="1.2"/><rect x="668" y="225.16" width="6" height="78.84" fill="#9E6BE3"/><line x1="660" y1="156.0" x2="665" y2="156.0" stroke="#30435E" stroke-width="1"/><line x1="660" y1="186.0" x2="665" y2="186.0" stroke="#30435E" stroke-width="1"/><line x1="660" y1="216.0" x2="665" y2="216.0" stroke="#30435E" stroke-width="1"/><line x1="660" y1="246.0" x2="665" y2="246.0" stroke="#30435E" stroke-width="1"/><line x1="660" y1="276.0" x2="665" y2="276.0" stroke="#30435E" stroke-width="1"/><line x1="660" y1="306.0" x2="665" y2="306.0" stroke="#30435E" stroke-width="1"/></g>
<g><set attributeName="opacity" to="0" begin="0s" dur="1.9025s"/><rect x="36" y="362" width="10" height="10" fill="#2D8CFF"/><text x="56" y="374" font-size="19" fill="#2D8CFF" font-weight="bold" text-anchor="start">uplink</text><line x1="138.4" y1="368" x2="632" y2="368" stroke="#30435E" stroke-width="1"/><rect x="640" y="362" width="10" height="10" fill="#2D8CFF" opacity="0.9"><animate attributeName="opacity" values="0.9;0.12;0.9" dur="3.2s" begin="0.0s" repeatCount="indefinite"/></rect><rect x="655" y="362" width="10" height="10" fill="#2D8CFF" opacity="0.6"><animate attributeName="opacity" values="0.6;0.12;0.6" dur="3.2s" begin="0.45s" repeatCount="indefinite"/></rect><rect x="670" y="362" width="10" height="10" fill="#2D8CFF" opacity="0.3"><animate attributeName="opacity" values="0.3;0.12;0.3" dur="3.2s" begin="0.9s" repeatCount="indefinite"/></rect></g>
<g><set attributeName="opacity" to="0" begin="0s" dur="1.9425s"/><text x="36" y="410" font-size="19" fill="#2D8CFF" font-weight="bold" text-anchor="start" xml:space="preserve">SYNC     </text><text x="138.6" y="410" font-size="19" fill="#C6FF3A" font-weight="normal" text-anchor="start" xml:space="preserve">00:30 CEST</text><text x="252.6" y="410" font-size="19" fill="#2D8CFF" font-weight="bold" text-anchor="start" xml:space="preserve">   SOURCE  </text><text x="378" y="410" font-size="19" fill="#EDF5FF" font-weight="normal" text-anchor="start" xml:space="preserve">open-meteo</text></g>
<g><set attributeName="opacity" to="0" begin="0s" dur="2.1825s"/><line x1="36" y1="442" x2="684" y2="442" stroke="#30435E" stroke-width="1"/><text x="36" y="478" font-size="21" fill="#2D8CFF" font-weight="normal" text-anchor="start">┌──(</text><text x="86.4" y="478" font-size="21" fill="#FF4FCB" font-weight="bold" text-anchor="start">snowyarch@zurich</text><text x="288" y="478" font-size="21" fill="#2D8CFF" font-weight="normal" text-anchor="start">)-[~]</text><text x="36" y="512" font-size="21" fill="#2D8CFF" font-weight="normal" text-anchor="start">└─$</text></g>
<g><set attributeName="opacity" to="0" begin="0s" dur="2.4825s"/><clipPath id="k32"><rect x="86.4" y="491" width="163.8" height="29.4"><animate attributeName="width" begin="2.4825s" dur="8.5333s" repeatCount="indefinite" calcMode="discrete" keyTimes="0;0.0065;0.013;0.0195;0.026;0.0326;0.0391;0.0456;0.0521;0.0586;0.0651;0.0716;0.0781;0.0846;0.3926;0.3958;0.3991;0.4023;0.4056;0.4089;0.4121;0.4154;0.4186;0.4219;0.4251;0.4284;0.4316" values="0;12.6;25.2;37.8;50.4;63;75.6;88.2;100.8;113.4;126;138.6;151.2;163.8;151.2;138.6;126;113.4;100.8;88.2;75.6;63;50.4;37.8;25.2;12.6;0"/></rect></clipPath><text x="86.4" y="512" font-size="21" fill="#C6FF3A" textLength="163.8" lengthAdjust="spacing" clip-path="url(#k32)">weather --now</text>
<clipPath id="k33"><rect x="86.4" y="491" width="0" height="29.4"><animate attributeName="width" begin="2.4825s" dur="8.5333s" repeatCount="indefinite" calcMode="discrete" keyTimes="0;0.4967;0.5033;0.5098;0.5163;0.5228;0.5293;0.5358;0.5423;0.5488;0.5553;0.5618;0.5684;0.5749;0.5814;0.5879;0.8958;0.8991;0.9023;0.9056;0.9089;0.9121;0.9154;0.9186;0.9219;0.9251;0.9284;0.9316;0.9349;0.9382;0.9414" values="0;12.6;25.2;37.8;50.4;63;75.6;88.2;100.8;113.4;126;138.6;151.2;163.8;176.4;189;176.4;163.8;151.2;138.6;126;113.4;100.8;88.2;75.6;63;50.4;37.8;25.2;12.6;0"/></rect></clipPath><text x="86.4" y="512" font-size="21" fill="#C6FF3A" textLength="189" lengthAdjust="spacing" clip-path="url(#k33)">overcast · 12°C</text>
<rect x="250.2" y="495.2" width="11.34" height="21" fill="#C6FF3A"><animate attributeName="x" begin="2.4825s" dur="8.5333s" repeatCount="indefinite" calcMode="discrete" keyTimes="0;0.0065;0.013;0.0195;0.026;0.0326;0.0391;0.0456;0.0521;0.0586;0.0651;0.0716;0.0781;0.0846;0.3926;0.3958;0.3991;0.4023;0.4056;0.4089;0.4121;0.4154;0.4186;0.4219;0.4251;0.4284;0.4316;0.4967;0.5033;0.5098;0.5163;0.5228;0.5293;0.5358;0.5423;0.5488;0.5553;0.5618;0.5684;0.5749;0.5814;0.5879;0.8958;0.8991;0.9023;0.9056;0.9089;0.9121;0.9154;0.9186;0.9219;0.9251;0.9284;0.9316;0.9349;0.9382;0.9414" values="86.4;99;111.6;124.2;136.8;149.4;162;174.6;187.2;199.8;212.4;225;237.6;250.2;237.6;225;212.4;199.8;187.2;174.6;162;149.4;136.8;124.2;111.6;99;86.4;99;111.6;124.2;136.8;149.4;162;174.6;187.2;199.8;212.4;225;237.6;250.2;262.8;275.4;262.8;250.2;237.6;225;212.4;199.8;187.2;174.6;162;149.4;136.8;124.2;111.6;99;86.4"/><animate attributeName="opacity" values="1;1;0.25;1" keyTimes="0;0.55;0.75;1" dur="1.3s" repeatCount="indefinite"/></rect></g>
<clipPath id="k30"><rect x="17" y="17" width="686" height="518"/></clipPath><g clip-path="url(#k30)"><rect x="17" y="-120" width="686" height="120" fill="url(#sweep)"><animateTransform attributeName="transform" type="translate" values="0 0;0 672" dur="7s" repeatCount="indefinite"/></rect></g>
</svg>
