<svg xmlns="http://www.w3.org/2000/svg" width="720" height="440" viewBox="0 0 720 440" fill="none">
<style>text{font-family:ui-monospace, 'SF Mono', SFMono-Regular, Menlo, Consolas, 'DejaVu Sans Mono', 'Liberation Mono', monospace;}</style>
<defs>
<pattern id="grid" width="24" height="24" patternUnits="userSpaceOnUse">
<path d="M24 0H0V24" stroke="#30435E" stroke-width="0.6" opacity="0.45"/>
</pattern>
<pattern id="scan" width="4" height="4" patternUnits="userSpaceOnUse">
<rect width="4" height="1" fill="#EDF5FF" opacity="0.025"/>
</pattern>
<filter id="glow" x="-20%" y="-20%" width="140%" height="140%">
<feGaussianBlur stdDeviation="3" result="b"/>
<feMerge><feMergeNode in="b"/><feMergeNode in="SourceGraphic"/></feMerge>
</filter>
<linearGradient id="fadeR" x1="0" x2="1" y1="0" y2="0">
<stop offset="0" stop-color="#2D8CFF" stop-opacity="0.9"/>
<stop offset="1" stop-color="#2D8CFF" stop-opacity="0"/>
</linearGradient>
<linearGradient id="fadeP" x1="0" x2="1" y1="0" y2="0">
<stop offset="0" stop-color="#FF4FCB" stop-opacity="0"/>
<stop offset="0.5" stop-color="#FF4FCB" stop-opacity="0.9"/>
<stop offset="1" stop-color="#FF4FCB" stop-opacity="0"/>
</linearGradient>
<linearGradient id="reflect" x1="0" x2="0" y1="0" y2="1">
<stop offset="0" stop-color="#FF4FCB" stop-opacity="0.28"/>
<stop offset="1" stop-color="#FF4FCB" stop-opacity="0"/>
</linearGradient>
<linearGradient id="sky" x1="0" x2="0" y1="0" y2="1">
<stop offset="0" stop-color="#070A10"/>
<stop offset="1" stop-color="#0E1830"/>
</linearGradient>
</defs>
<rect width="720" height="440" fill="#070A10"/>
<rect x="0" y="0" width="720" height="330" fill="url(#sky)"/>
<line x1="233.2" y1="46.8" x2="228.9" y2="63.9" stroke="#A7B8CE" stroke-width="0.8" opacity="0.09"/>
<line x1="385.8" y1="113.4" x2="383.6" y2="122.2" stroke="#A7B8CE" stroke-width="0.8" opacity="0.15"/>
<line x1="27.0" y1="134.4" x2="24.8" y2="143.4" stroke="#A7B8CE" stroke-width="0.8" opacity="0.09"/>
<line x1="305.7" y1="256.3" x2="303.2" y2="266.1" stroke="#A7B8CE" stroke-width="0.8" opacity="0.11"/>
<line x1="451.8" y1="293.8" x2="447.7" y2="309.9" stroke="#A7B8CE" stroke-width="0.8" opacity="0.14"/>
<line x1="702.9" y1="14.4" x2="697.9" y2="34.5" stroke="#A7B8CE" stroke-width="0.8" opacity="0.12"/>
<line x1="103.9" y1="36.5" x2="100.8" y2="48.8" stroke="#A7B8CE" stroke-width="0.8" opacity="0.19"/>
<line x1="130.1" y1="180.3" x2="125.9" y2="197.2" stroke="#A7B8CE" stroke-width="0.8" opacity="0.13"/>
<line x1="394.4" y1="19.5" x2="392.2" y2="28.3" stroke="#A7B8CE" stroke-width="0.8" opacity="0.11"/>
<line x1="489.9" y1="132.6" x2="486.8" y2="145.0" stroke="#A7B8CE" stroke-width="0.8" opacity="0.16"/>
<line x1="326.3" y1="92.9" x2="321.5" y2="112.0" stroke="#A7B8CE" stroke-width="0.8" opacity="0.18"/>
<line x1="175.7" y1="178.1" x2="171.9" y2="193.4" stroke="#A7B8CE" stroke-width="0.8" opacity="0.2"/>
<line x1="525.2" y1="89.3" x2="519.8" y2="111.0" stroke="#A7B8CE" stroke-width="0.8" opacity="0.1"/>
<line x1="301.0" y1="234.7" x2="298.5" y2="244.8" stroke="#A7B8CE" stroke-width="0.8" opacity="0.15"/>
<line x1="28.2" y1="207.1" x2="23.6" y2="225.9" stroke="#A7B8CE" stroke-width="0.8" opacity="0.16"/>
<line x1="630.3" y1="97.3" x2="625.9" y2="115.0" stroke="#A7B8CE" stroke-width="0.8" opacity="0.16"/>
<line x1="417.5" y1="141.4" x2="412.6" y2="161.2" stroke="#A7B8CE" stroke-width="0.8" opacity="0.21"/>
<line x1="341.4" y1="205.9" x2="339.1" y2="214.7" stroke="#A7B8CE" stroke-width="0.8" opacity="0.18"/>
<line x1="465.9" y1="307.9" x2="461.1" y2="327.4" stroke="#A7B8CE" stroke-width="0.8" opacity="0.12"/>
<line x1="277.8" y1="207.3" x2="275.7" y2="215.6" stroke="#A7B8CE" stroke-width="0.8" opacity="0.14"/>
<line x1="121.0" y1="36.3" x2="118.8" y2="45.1" stroke="#A7B8CE" stroke-width="0.8" opacity="0.19"/>
<line x1="93.1" y1="76.8" x2="89.8" y2="90.2" stroke="#A7B8CE" stroke-width="0.8" opacity="0.2"/>
<line x1="58.0" y1="139.2" x2="54.1" y2="154.9" stroke="#A7B8CE" stroke-width="0.8" opacity="0.2"/>
<line x1="589.9" y1="267.8" x2="586.9" y2="279.7" stroke="#A7B8CE" stroke-width="0.8" opacity="0.14"/>
<line x1="258.3" y1="274.1" x2="253.0" y2="295.5" stroke="#A7B8CE" stroke-width="0.8" opacity="0.1"/>
<line x1="126.9" y1="71.9" x2="124.1" y2="83.2" stroke="#A7B8CE" stroke-width="0.8" opacity="0.15"/>
<line x1="424.2" y1="81.5" x2="422.2" y2="89.5" stroke="#A7B8CE" stroke-width="0.8" opacity="0.14"/>
<line x1="265.9" y1="175.6" x2="260.5" y2="196.9" stroke="#A7B8CE" stroke-width="0.8" opacity="0.18"/>
<line x1="371.2" y1="191.5" x2="366.8" y2="208.9" stroke="#A7B8CE" stroke-width="0.8" opacity="0.09"/>
<line x1="647.7" y1="241.8" x2="642.6" y2="262.0" stroke="#A7B8CE" stroke-width="0.8" opacity="0.19"/>
<line x1="282.5" y1="123.7" x2="280.2" y2="133.1" stroke="#A7B8CE" stroke-width="0.8" opacity="0.17"/>
<line x1="44.8" y1="20.9" x2="42.1" y2="31.8" stroke="#A7B8CE" stroke-width="0.8" opacity="0.1"/>
<line x1="244.8" y1="16.3" x2="242.8" y2="24.3" stroke="#A7B8CE" stroke-width="0.8" opacity="0.1"/>
<line x1="73.1" y1="112.7" x2="71.0" y2="121.1" stroke="#A7B8CE" stroke-width="0.8" opacity="0.2"/>
<line x1="442.1" y1="46.1" x2="439.2" y2="57.6" stroke="#A7B8CE" stroke-width="0.8" opacity="0.13"/>
<line x1="262.2" y1="38.1" x2="257.2" y2="58.0" stroke="#A7B8CE" stroke-width="0.8" opacity="0.22"/>
<line x1="335.5" y1="150.0" x2="333.2" y2="159.2" stroke="#A7B8CE" stroke-width="0.8" opacity="0.09"/>
<line x1="246.7" y1="82.1" x2="241.8" y2="101.7" stroke="#A7B8CE" stroke-width="0.8" opacity="0.1"/>
<line x1="16.6" y1="294.8" x2="12.8" y2="310.2" stroke="#A7B8CE" stroke-width="0.8" opacity="0.1"/>
<line x1="391.1" y1="8.4" x2="387.2" y2="23.8" stroke="#A7B8CE" stroke-width="0.8" opacity="0.22"/>
<line x1="621.6" y1="215.8" x2="618.7" y2="227.5" stroke="#A7B8CE" stroke-width="0.8" opacity="0.13"/>
<line x1="120.3" y1="239.3" x2="116.4" y2="254.8" stroke="#A7B8CE" stroke-width="0.8" opacity="0.19"/>
<line x1="237.4" y1="69.1" x2="232.5" y2="88.5" stroke="#A7B8CE" stroke-width="0.8" opacity="0.22"/>
<line x1="613.9" y1="249.9" x2="609.0" y2="269.3" stroke="#A7B8CE" stroke-width="0.8" opacity="0.18"/>
<line x1="163.3" y1="160.5" x2="160.0" y2="173.4" stroke="#A7B8CE" stroke-width="0.8" opacity="0.08"/>
<line x1="20.1" y1="86.6" x2="17.2" y2="98.2" stroke="#A7B8CE" stroke-width="0.8" opacity="0.18"/>
<line x1="688.7" y1="138.6" x2="683.4" y2="159.8" stroke="#A7B8CE" stroke-width="0.8" opacity="0.22"/>
<line x1="687.6" y1="113.0" x2="684.8" y2="124.1" stroke="#A7B8CE" stroke-width="0.8" opacity="0.11"/>
<line x1="141.6" y1="63.4" x2="137.4" y2="80.1" stroke="#A7B8CE" stroke-width="0.8" opacity="0.21"/>
<line x1="605.1" y1="148.6" x2="600.8" y2="165.8" stroke="#A7B8CE" stroke-width="0.8" opacity="0.19"/>
<line x1="61.0" y1="204.8" x2="55.9" y2="225.5" stroke="#A7B8CE" stroke-width="0.8" opacity="0.19"/>
<line x1="540.1" y1="148.2" x2="537.5" y2="158.7" stroke="#A7B8CE" stroke-width="0.8" opacity="0.19"/>
<line x1="239.4" y1="248.3" x2="234.0" y2="269.9" stroke="#A7B8CE" stroke-width="0.8" opacity="0.14"/>
<line x1="289.0" y1="293.5" x2="284.5" y2="311.7" stroke="#A7B8CE" stroke-width="0.8" opacity="0.1"/>
<line x1="91.5" y1="46.9" x2="86.3" y2="67.5" stroke="#A7B8CE" stroke-width="0.8" opacity="0.19"/>
<line x1="105.2" y1="256.2" x2="99.8" y2="277.9" stroke="#A7B8CE" stroke-width="0.8" opacity="0.17"/>
<line x1="252.3" y1="170.1" x2="249.8" y2="179.9" stroke="#A7B8CE" stroke-width="0.8" opacity="0.08"/>
<line x1="699.0" y1="201.4" x2="695.2" y2="216.8" stroke="#A7B8CE" stroke-width="0.8" opacity="0.21"/>
<line x1="312.3" y1="270.2" x2="307.5" y2="289.8" stroke="#A7B8CE" stroke-width="0.8" opacity="0.11"/>
<line x1="181.3" y1="90.8" x2="178.5" y2="102.2" stroke="#A7B8CE" stroke-width="0.8" opacity="0.16"/>
<line x1="186.7" y1="129.9" x2="184.3" y2="139.7" stroke="#A7B8CE" stroke-width="0.8" opacity="0.21"/>
<line x1="254.7" y1="142.0" x2="250.7" y2="158.2" stroke="#A7B8CE" stroke-width="0.8" opacity="0.21"/>
<line x1="302.9" y1="284.5" x2="299.1" y2="299.5" stroke="#A7B8CE" stroke-width="0.8" opacity="0.15"/>
<line x1="376.9" y1="5.8" x2="373.4" y2="20.0" stroke="#A7B8CE" stroke-width="0.8" opacity="0.11"/>
<line x1="2.8" y1="247.7" x2="0.2" y2="258.2" stroke="#A7B8CE" stroke-width="0.8" opacity="0.15"/>
<line x1="522.1" y1="172.5" x2="519.0" y2="185.1" stroke="#A7B8CE" stroke-width="0.8" opacity="0.15"/>
<line x1="399.9" y1="243.1" x2="397.5" y2="252.6" stroke="#A7B8CE" stroke-width="0.8" opacity="0.16"/>
<line x1="178.9" y1="85.8" x2="174.2" y2="104.7" stroke="#A7B8CE" stroke-width="0.8" opacity="0.15"/>
<line x1="404.4" y1="235.6" x2="399.3" y2="256.4" stroke="#A7B8CE" stroke-width="0.8" opacity="0.14"/>
<line x1="441.0" y1="156.7" x2="437.2" y2="171.9" stroke="#A7B8CE" stroke-width="0.8" opacity="0.18"/>
<line x1="325.7" y1="165.3" x2="322.0" y2="180.0" stroke="#A7B8CE" stroke-width="0.8" opacity="0.21"/>
<line x1="503.4" y1="271.7" x2="498.1" y2="292.9" stroke="#A7B8CE" stroke-width="0.8" opacity="0.12"/>
<line x1="402.8" y1="292.4" x2="397.9" y2="312.2" stroke="#A7B8CE" stroke-width="0.8" opacity="0.1"/>
<line x1="87.6" y1="137.1" x2="85.3" y2="146.1" stroke="#A7B8CE" stroke-width="0.8" opacity="0.11"/>
<line x1="52.6" y1="207.5" x2="47.9" y2="226.5" stroke="#A7B8CE" stroke-width="0.8" opacity="0.21"/>
<line x1="111.2" y1="222.0" x2="106.9" y2="239.2" stroke="#A7B8CE" stroke-width="0.8" opacity="0.1"/>
<line x1="635.6" y1="299.9" x2="632.9" y2="311.0" stroke="#A7B8CE" stroke-width="0.8" opacity="0.21"/>
<line x1="286.7" y1="151.1" x2="281.3" y2="172.9" stroke="#A7B8CE" stroke-width="0.8" opacity="0.2"/>
<line x1="116.3" y1="133.8" x2="112.5" y2="149.0" stroke="#A7B8CE" stroke-width="0.8" opacity="0.13"/>
<line x1="140.9" y1="98.7" x2="136.4" y2="116.9" stroke="#A7B8CE" stroke-width="0.8" opacity="0.08"/>
<line x1="398.9" y1="136.5" x2="396.9" y2="144.8" stroke="#A7B8CE" stroke-width="0.8" opacity="0.13"/>
<line x1="449.2" y1="158.8" x2="447.0" y2="167.7" stroke="#A7B8CE" stroke-width="0.8" opacity="0.22"/>
<line x1="567.6" y1="301.2" x2="565.3" y2="310.7" stroke="#A7B8CE" stroke-width="0.8" opacity="0.12"/>
<line x1="28.5" y1="241.5" x2="25.6" y2="253.3" stroke="#A7B8CE" stroke-width="0.8" opacity="0.1"/>
<line x1="304.0" y1="282.5" x2="299.2" y2="302.0" stroke="#A7B8CE" stroke-width="0.8" opacity="0.12"/>
<line x1="107.5" y1="284.9" x2="103.5" y2="300.9" stroke="#A7B8CE" stroke-width="0.8" opacity="0.18"/>
<line x1="64.4" y1="17.8" x2="60.0" y2="35.5" stroke="#A7B8CE" stroke-width="0.8" opacity="0.14"/>
<line x1="52.1" y1="290.9" x2="47.9" y2="307.8" stroke="#A7B8CE" stroke-width="0.8" opacity="0.19"/>
<line x1="60.3" y1="265.4" x2="58.1" y2="274.4" stroke="#A7B8CE" stroke-width="0.8" opacity="0.2"/>
<line x1="326.7" y1="105.1" x2="322.8" y2="120.9" stroke="#A7B8CE" stroke-width="0.8" opacity="0.21"/>
<clipPath id="moonclip"><rect x="540" y="36" width="140" height="9"/><rect x="540" y="45" width="140" height="8"/><rect x="540" y="54" width="140" height="7"/><rect x="540" y="63" width="140" height="6"/><rect x="540" y="72" width="140" height="5"/><rect x="540" y="81" width="140" height="4"/><rect x="540" y="90" width="140" height="3"/><rect x="540" y="99" width="140" height="3"/><rect x="540" y="108" width="140" height="3"/><rect x="540" y="117" width="140" height="3"/><rect x="540" y="126" width="140" height="3"/><rect x="540" y="135" width="140" height="3"/></clipPath>
<circle cx="610" cy="96" r="54" fill="#FF4FCB" opacity="0.85" clip-path="url(#moonclip)"/>
<circle cx="610" cy="96" r="62" stroke="#FF4FCB" stroke-width="1" opacity="0.35"/>
<rect x="-4" y="191" width="46" height="139" fill="#0B1220" stroke="#30435E" stroke-width="1"/>
<line x1="19.0" y1="191" x2="19.0" y2="177" stroke="#30435E" stroke-width="1.2"/>
<rect x="2" y="210" width="4" height="5" fill="#2D8CFF" opacity="0.77"/>
<rect x="11" y="232" width="4" height="5" fill="#FF4FCB" opacity="0.68"/>
<rect x="11" y="287" width="4" height="5" fill="#2D8CFF" opacity="0.36"/>
<rect x="11" y="298" width="4" height="5" fill="#A7B8CE" opacity="0.74"/>
<rect x="46" y="229" width="62" height="101" fill="#0B1220" stroke="#30435E" stroke-width="1"/>
<line x1="77.0" y1="229" x2="77.0" y2="215" stroke="#30435E" stroke-width="1.2"/>
<rect x="79" y="237" width="4" height="5" fill="#A7B8CE" opacity="0.39"/>
<rect x="70" y="248" width="4" height="5" fill="#FF4FCB" opacity="0.41"/>
<rect x="61" y="259" width="4" height="5" fill="#C6FF3A" opacity="0.73"/>
<rect x="88" y="292" width="4" height="5" fill="#C6FF3A" opacity="0.71"/>
<rect x="70" y="303" width="4" height="5" fill="#FF4FCB" opacity="0.41"/>
<rect x="97" y="314" width="4" height="5" fill="#FF4FCB" opacity="0.69"/>
<rect x="112" y="202" width="62" height="128" fill="#0B1220" stroke="#30435E" stroke-width="1"/>
<line x1="143.0" y1="202" x2="143.0" y2="188" stroke="#30435E" stroke-width="1.2"/>
<rect x="163" y="221" width="4" height="5" fill="#A7B8CE" opacity="0.7"/>
<rect x="136" y="232" width="4" height="5" fill="#2D8CFF" opacity="0.5"/>
<rect x="154" y="243" width="4" height="5" fill="#2D8CFF" opacity="0.65"/>
<rect x="136" y="265" width="4" height="5" fill="#A7B8CE" opacity="0.38"/>
<rect x="145" y="276" width="4" height="5" fill="#FF4FCB" opacity="0.41"/>
<rect x="136" y="298" width="4" height="5" fill="#FF4FCB" opacity="0.78"/>
<rect x="145" y="320" width="4" height="5" fill="#A7B8CE" opacity="0.46"/>
<rect x="154" y="320" width="4" height="5" fill="#A7B8CE" opacity="0.8"/>
<rect x="178" y="216" width="46" height="114" fill="#0B1220" stroke="#30435E" stroke-width="1"/>
<rect x="202" y="224" width="4" height="5" fill="#A7B8CE" opacity="0.64"/>
<rect x="202" y="246" width="4" height="5" fill="#A7B8CE" opacity="0.76"/>
<rect x="202" y="257" width="4" height="5" fill="#A7B8CE" opacity="0.55"/>
<rect x="202" y="268" width="4" height="5" fill="#C6FF3A" opacity="0.41"/>
<rect x="228" y="216" width="54" height="114" fill="#0B1220" stroke="#30435E" stroke-width="1"/>
<line x1="255.0" y1="216" x2="255.0" y2="202" stroke="#30435E" stroke-width="1.2"/>
<rect x="243" y="224" width="4" height="5" fill="#A7B8CE" opacity="0.6"/>
<rect x="243" y="235" width="4" height="5" fill="#A7B8CE" opacity="0.52"/>
<rect x="261" y="257" width="4" height="5" fill="#2D8CFF" opacity="0.52"/>
<rect x="234" y="290" width="4" height="5" fill="#C6FF3A" opacity="0.73"/>
<rect x="261" y="312" width="4" height="5" fill="#2D8CFF" opacity="0.45"/>
<rect x="286" y="254" width="46" height="76" fill="#0B1220" stroke="#30435E" stroke-width="1"/>
<rect x="319" y="262" width="4" height="5" fill="#A7B8CE" opacity="0.59"/>
<rect x="292" y="284" width="4" height="5" fill="#A7B8CE" opacity="0.8"/>
<rect x="319" y="295" width="4" height="5" fill="#A7B8CE" opacity="0.67"/>
<rect x="301" y="306" width="4" height="5" fill="#A7B8CE" opacity="0.75"/>
<rect x="319" y="306" width="4" height="5" fill="#2D8CFF" opacity="0.65"/>
<rect x="310" y="317" width="4" height="5" fill="#A7B8CE" opacity="0.67"/>
<rect x="336" y="245" width="54" height="85" fill="#0B1220" stroke="#30435E" stroke-width="1"/>
<line x1="363.0" y1="245" x2="363.0" y2="231" stroke="#30435E" stroke-width="1.2"/>
<rect x="360" y="253" width="4" height="5" fill="#A7B8CE" opacity="0.79"/>
<rect x="351" y="297" width="4" height="5" fill="#FF4FCB" opacity="0.43"/>
<rect x="351" y="308" width="4" height="5" fill="#2D8CFF" opacity="0.5"/>
<rect x="342" y="319" width="4" height="5" fill="#A7B8CE" opacity="0.73"/>
<rect x="378" y="319" width="4" height="5" fill="#FF4FCB" opacity="0.51"/>
<rect x="394" y="199" width="30" height="131" fill="#0B1220" stroke="#30435E" stroke-width="1"/>
<rect x="409" y="229" width="4" height="5" fill="#A7B8CE" opacity="0.44"/>
<rect x="400" y="306" width="4" height="5" fill="#2D8CFF" opacity="0.69"/>
<rect x="428" y="265" width="62" height="65" fill="#0B1220" stroke="#30435E" stroke-width="1"/>
<line x1="459.0" y1="265" x2="459.0" y2="251" stroke="#30435E" stroke-width="1.2"/>
<rect x="461" y="273" width="4" height="5" fill="#C6FF3A" opacity="0.76"/>
<rect x="434" y="284" width="4" height="5" fill="#2D8CFF" opacity="0.4"/>
<rect x="461" y="295" width="4" height="5" fill="#A7B8CE" opacity="0.72"/>
<rect x="470" y="306" width="4" height="5" fill="#2D8CFF" opacity="0.53"/>
<rect x="494" y="247" width="30" height="83" fill="#0B1220" stroke="#30435E" stroke-width="1"/>
<rect x="528" y="246" width="46" height="84" fill="#0B1220" stroke="#30435E" stroke-width="1"/>
<rect x="534" y="309" width="4" height="5" fill="#A7B8CE" opacity="0.45"/>
<rect x="543" y="309" width="4" height="5" fill="#C6FF3A" opacity="0.79"/>
<rect x="578" y="236" width="30" height="94" fill="#0B1220" stroke="#30435E" stroke-width="1"/>
<line x1="593.0" y1="236" x2="593.0" y2="222" stroke="#30435E" stroke-width="1.2"/>
<rect x="593" y="277" width="4" height="5" fill="#A7B8CE" opacity="0.53"/>
<rect x="584" y="299" width="4" height="5" fill="#FF4FCB" opacity="0.71"/>
<rect x="584" y="310" width="4" height="5" fill="#FF4FCB" opacity="0.71"/>
<rect x="612" y="246" width="38" height="84" fill="#0B1220" stroke="#30435E" stroke-width="1"/>
<rect x="627" y="298" width="4" height="5" fill="#2D8CFF" opacity="0.54"/>
<rect x="627" y="320" width="4" height="5" fill="#C6FF3A" opacity="0.41"/>
<rect x="654" y="233" width="54" height="97" fill="#0B1220" stroke="#30435E" stroke-width="1"/>
<rect x="696" y="241" width="4" height="5" fill="#A7B8CE" opacity="0.57"/>
<rect x="678" y="263" width="4" height="5" fill="#A7B8CE" opacity="0.39"/>
<rect x="687" y="285" width="4" height="5" fill="#C6FF3A" opacity="0.42"/>
<rect x="712" y="216" width="38" height="114" fill="#0B1220" stroke="#30435E" stroke-width="1"/>
<rect x="718" y="235" width="4" height="5" fill="#A7B8CE" opacity="0.56"/>
<rect x="727" y="257" width="4" height="5" fill="#A7B8CE" opacity="0.54"/>
<rect x="736" y="257" width="4" height="5" fill="#A7B8CE" opacity="0.58"/>
<rect x="727" y="268" width="4" height="5" fill="#2D8CFF" opacity="0.39"/>
<rect x="736" y="279" width="4" height="5" fill="#C6FF3A" opacity="0.75"/>
<rect x="736" y="290" width="4" height="5" fill="#FF4FCB" opacity="0.8"/>
<rect x="0" y="330" width="720" height="110" fill="url(#reflect)"/>
<line x1="0" y1="330" x2="720" y2="330" stroke="#FF4FCB" stroke-width="1.6" opacity="0.9"/>
<line x1="0" y1="330" x2="720" y2="330" stroke="#FF4FCB" stroke-width="5" opacity="0.25"/>
<line x1="108.0" y1="330" x2="-900.0" y2="440" stroke="#2D8CFF" stroke-width="0.8" opacity="0.35"/>
<line x1="126.0" y1="330" x2="-810.0" y2="440" stroke="#2D8CFF" stroke-width="0.8" opacity="0.35"/>
<line x1="144.0" y1="330" x2="-720.0" y2="440" stroke="#2D8CFF" stroke-width="0.8" opacity="0.35"/>
<line x1="162.0" y1="330" x2="-630.0" y2="440" stroke="#2D8CFF" stroke-width="0.8" opacity="0.35"/>
<line x1="180.0" y1="330" x2="-540.0" y2="440" stroke="#2D8CFF" stroke-width="0.8" opacity="0.35"/>
<line x1="198.0" y1="330" x2="-450.0" y2="440" stroke="#2D8CFF" stroke-width="0.8" opacity="0.35"/>
<line x1="216.0" y1="330" x2="-360.0" y2="440" stroke="#2D8CFF" stroke-width="0.8" opacity="0.35"/>
<line x1="234.0" y1="330" x2="-270.0" y2="440" stroke="#2D8CFF" stroke-width="0.8" opacity="0.35"/>
<line x1="252.0" y1="330" x2="-180.0" y2="440" stroke="#2D8CFF" stroke-width="0.8" opacity="0.35"/>
<line x1="270.0" y1="330" x2="-90.0" y2="440" stroke="#2D8CFF" stroke-width="0.8" opacity="0.35"/>
<line x1="288.0" y1="330" x2="0.0" y2="440" stroke="#2D8CFF" stroke-width="0.8" opacity="0.35"/>
<line x1="306.0" y1="330" x2="90.0" y2="440" stroke="#2D8CFF" stroke-width="0.8" opacity="0.35"/>
<line x1="324.0" y1="330" x2="180.0" y2="440" stroke="#2D8CFF" stroke-width="0.8" opacity="0.35"/>
<line x1="342.0" y1="330" x2="270.0" y2="440" stroke="#2D8CFF" stroke-width="0.8" opacity="0.35"/>
<line x1="360.0" y1="330" x2="360.0" y2="440" stroke="#2D8CFF" stroke-width="0.8" opacity="0.35"/>
<line x1="378.0" y1="330" x2="450.0" y2="440" stroke="#2D8CFF" stroke-width="0.8" opacity="0.35"/>
<line x1="396.0" y1="330" x2="540.0" y2="440" stroke="#2D8CFF" stroke-width="0.8" opacity="0.35"/>
<line x1="414.0" y1="330" x2="630.0" y2="440" stroke="#2D8CFF" stroke-width="0.8" opacity="0.35"/>
<line x1="432.0" y1="330" x2="720.0" y2="440" stroke="#2D8CFF" stroke-width="0.8" opacity="0.35"/>
<line x1="450.0" y1="330" x2="810.0" y2="440" stroke="#2D8CFF" stroke-width="0.8" opacity="0.35"/>
<line x1="468.0" y1="330" x2="900.0" y2="440" stroke="#2D8CFF" stroke-width="0.8" opacity="0.35"/>
<line x1="486.0" y1="330" x2="990.0" y2="440" stroke="#2D8CFF" stroke-width="0.8" opacity="0.35"/>
<line x1="504.0" y1="330" x2="1080.0" y2="440" stroke="#2D8CFF" stroke-width="0.8" opacity="0.35"/>
<line x1="522.0" y1="330" x2="1170.0" y2="440" stroke="#2D8CFF" stroke-width="0.8" opacity="0.35"/>
<line x1="540.0" y1="330" x2="1260.0" y2="440" stroke="#2D8CFF" stroke-width="0.8" opacity="0.35"/>
<line x1="558.0" y1="330" x2="1350.0" y2="440" stroke="#2D8CFF" stroke-width="0.8" opacity="0.35"/>
<line x1="576.0" y1="330" x2="1440.0" y2="440" stroke="#2D8CFF" stroke-width="0.8" opacity="0.35"/>
<line x1="594.0" y1="330" x2="1530.0" y2="440" stroke="#2D8CFF" stroke-width="0.8" opacity="0.35"/>
<line x1="612.0" y1="330" x2="1620.0" y2="440" stroke="#2D8CFF" stroke-width="0.8" opacity="0.35"/>
<line x1="0" y1="336" x2="720" y2="336" stroke="#2D8CFF" stroke-width="0.8" opacity="0.35"/>
<line x1="0" y1="344.3" x2="720" y2="344.3" stroke="#2D8CFF" stroke-width="0.8" opacity="0.35"/>
<line x1="0" y1="355.7" x2="720" y2="355.7" stroke="#2D8CFF" stroke-width="0.8" opacity="0.35"/>
<line x1="0" y1="371.5" x2="720" y2="371.5" stroke="#2D8CFF" stroke-width="0.8" opacity="0.35"/>
<line x1="0" y1="393.2" x2="720" y2="393.2" stroke="#2D8CFF" stroke-width="0.8" opacity="0.35"/>
<line x1="0" y1="423.3" x2="720" y2="423.3" stroke="#2D8CFF" stroke-width="0.8" opacity="0.35"/>
<rect x="24" y="24" width="410" height="156" fill="#101724"/>
<rect x="24" y="24" width="410" height="156" fill="url(#scan)"/>
<rect x="24" y="24" width="410" height="38" fill="#172235"/>
<line x1="24" y1="62" x2="434" y2="62" stroke="#FF4FCB" stroke-width="1.2" opacity="0.7"/>
<rect x="24" y="24" width="410" height="156" fill="none" stroke="#FF4FCB" stroke-width="1.6" opacity="0.55" filter="url(#glow)"/>
<rect x="24" y="24" width="410" height="156" fill="none" stroke="#FF4FCB" stroke-width="1.2"/>
<circle cx="46" cy="43" r="5.5" stroke="#FF4FCB" stroke-width="1.6" fill="#FF4FCB"/>
<circle cx="66" cy="43" r="5.5" stroke="#FF4FCB" stroke-width="1.6"/>
<circle cx="86" cy="43" r="5.5" stroke="#FF4FCB" stroke-width="1.6"/>
<text x="110" y="51" font-size="22" fill="#A7B8CE" font-weight="normal" text-anchor="start">session</text>
<text x="418" y="51" font-size="22" fill="#FF4FCB" font-weight="normal" text-anchor="end">01</text>
<text x="44" y="92" font-size="24" fill="#FF4FCB" font-weight="normal" text-anchor="start">&gt; connection established</text>
<text x="44" y="124" font-size="24" fill="#EDF5FF" font-weight="normal" text-anchor="start">&gt; public node online</text>
<text x="44" y="156" font-size="24" fill="#C6FF3A" font-weight="normal" text-anchor="start">&gt; session initialized</text>
<rect x="362" y="137" width="13" height="23" fill="#C6FF3A"/>
<text x="37" y="271" font-size="104" fill="#2D8CFF" font-weight="bold" text-anchor="start" opacity="0.8" textLength="520" lengthAdjust="spacingAndGlyphs">snowyarch</text>
<text x="43" y="267" font-size="104" fill="#FF4FCB" font-weight="bold" text-anchor="start" opacity="0.8" textLength="520" lengthAdjust="spacingAndGlyphs">snowyarch</text>
<text x="40" y="269" font-size="104" fill="#EDF5FF" font-weight="bold" text-anchor="start" textLength="520" lengthAdjust="spacingAndGlyphs" stroke="#070A10" stroke-width="2" paint-order="stroke">snowyarch</text>
<rect x="572" y="214" width="34" height="3" fill="#FF4FCB" opacity="0.8"/>
<rect x="584" y="222" width="18" height="3" fill="#2D8CFF" opacity="0.8"/>
<rect x="566" y="252" width="26" height="3" fill="#2D8CFF" opacity="0.8"/>
<rect x="28" y="284" width="664" height="40" fill="#070A10" opacity="0.82"/>
<text x="42" y="313" font-size="28" fill="#FF4FCB" font-weight="bold" text-anchor="start" letter-spacing="1">ZÜRICH // CH</text>
<text x="680" y="312" font-size="24" fill="#A7B8CE" font-weight="normal" text-anchor="end">AFTERHOURS / PERSONAL NODE</text>
<rect x="0" y="402" width="720" height="38" fill="#070A10" opacity="0.86"/>
<text x="24" y="428" font-size="22" fill="#2D8CFF" font-weight="bold" text-anchor="start">NODE ZH-01</text>
<text x="360.0" y="428" font-size="22" fill="#A7B8CE" font-weight="normal" text-anchor="middle">public surface</text>
<rect x="650" y="422" width="5" height="6" fill="#C6FF3A"/>
<rect x="659" y="418" width="5" height="10" fill="#C6FF3A"/>
<rect x="668" y="414" width="5" height="14" fill="#C6FF3A"/>
<rect x="677" y="410" width="5" height="18" fill="#C6FF3A"/>
<rect x="686" y="406" width="5" height="22" fill="#30435E"/>
<path d="M8 26V8H26" stroke="#A7B8CE" stroke-width="1.5"/>
<path d="M712 26V8H694" stroke="#A7B8CE" stroke-width="1.5"/>
<path d="M8 414V432H26" stroke="#A7B8CE" stroke-width="1.5"/>
<path d="M712 414V432H694" stroke="#A7B8CE" stroke-width="1.5"/>
</svg>
