<svg xmlns="http://www.w3.org/2000/svg" width="720" height="262" viewBox="0 0 720 262" fill="none">
<style>text{font-family:ui-monospace, 'SF Mono', SFMono-Regular, Menlo, Consolas, 'DejaVu Sans Mono', 'Liberation Mono', monospace;}</style>
<defs>
<pattern id="grid" width="24" height="24" patternUnits="userSpaceOnUse">
<path d="M24 0H0V24" stroke="#30435E" stroke-width="0.6" opacity="0.45"/>
</pattern>
<pattern id="scan" width="4" height="4" patternUnits="userSpaceOnUse">
<rect width="4" height="1" fill="#EDF5FF" opacity="0.025"/>
</pattern>
<filter id="glow" x="-20%" y="-20%" width="140%" height="140%">
<feGaussianBlur stdDeviation="3" result="b"/>
<feMerge><feMergeNode in="b"/><feMergeNode in="SourceGraphic"/></feMerge>
</filter>
<linearGradient id="fadeR" x1="0" x2="1" y1="0" y2="0">
<stop offset="0" stop-color="#2D8CFF" stop-opacity="0.9"/>
<stop offset="1" stop-color="#2D8CFF" stop-opacity="0"/>
</linearGradient>
<linearGradient id="fadeP" x1="0" x2="1" y1="0" y2="0">
<stop offset="0" stop-color="#FF4FCB" stop-opacity="0"/>
<stop offset="0.5" stop-color="#FF4FCB" stop-opacity="0.9"/>
<stop offset="1" stop-color="#FF4FCB" stop-opacity="0"/>
</linearGradient>
<linearGradient id="reflect" x1="0" x2="0" y1="0" y2="1">
<stop offset="0" stop-color="#FF4FCB" stop-opacity="0.28"/>
<stop offset="1" stop-color="#FF4FCB" stop-opacity="0"/>
</linearGradient>
<linearGradient id="sky" x1="0" x2="0" y1="0" y2="1">
<stop offset="0" stop-color="#070A10"/>
<stop offset="1" stop-color="#0E1830"/>
</linearGradient>
</defs>
<rect width="720" height="262" fill="#070A10"/>
<rect x="16" y="16" width="688" height="230" fill="#101724"/>
<rect x="16" y="16" width="688" height="230" fill="url(#scan)"/>
<rect x="16" y="16" width="688" height="38" fill="#172235"/>
<line x1="16" y1="54" x2="704" y2="54" stroke="#C6FF3A" stroke-width="1.2" opacity="0.7"/>
<rect x="16" y="16" width="688" height="230" fill="none" stroke="#C6FF3A" stroke-width="1.6" opacity="0.55" filter="url(#glow)"/>
<rect x="16" y="16" width="688" height="230" fill="none" stroke="#C6FF3A" stroke-width="1.2"/>
<circle cx="38" cy="35" r="5.5" stroke="#C6FF3A" stroke-width="1.6" fill="#C6FF3A"/>
<circle cx="58" cy="35" r="5.5" stroke="#C6FF3A" stroke-width="1.6"/>
<circle cx="78" cy="35" r="5.5" stroke="#C6FF3A" stroke-width="1.6"/>
<text x="102" y="43" font-size="22" fill="#A7B8CE" font-weight="normal" text-anchor="start">mind.cache</text>
<text x="688" y="43" font-size="22" fill="#C6FF3A" font-weight="normal" text-anchor="end">05 entries</text>
<line x1="84" y1="56" x2="84" y2="236" stroke="#FF4FCB" stroke-width="1" opacity="0.6"/>
<text x="40" y="92" font-size="20" fill="#A7B8CE" font-weight="normal" text-anchor="start">01</text>
<text x="40" y="124" font-size="20" fill="#A7B8CE" font-weight="normal" text-anchor="start">02</text>
<text x="40" y="156" font-size="20" fill="#A7B8CE" font-weight="normal" text-anchor="start">03</text>
<text x="40" y="188" font-size="20" fill="#A7B8CE" font-weight="normal" text-anchor="start">04</text>
<text x="40" y="220" font-size="20" fill="#A7B8CE" font-weight="normal" text-anchor="start">05</text>
<text x="104" y="116" font-size="48" fill="#EDF5FF" font-weight="bold" text-anchor="start" letter-spacing="3">MIND CACHE</text>
<text x="104" y="158" font-size="24" fill="#C6FF3A" font-weight="normal" text-anchor="start">[ questions still open ]</text>
<text x="104" y="204" font-size="24" fill="#A7B8CE" font-weight="normal" text-anchor="start">&gt; fragments, not answers</text>
<rect x="476" y="185" width="13" height="24" fill="#FF4FCB"/>
</svg>
