<svg xmlns="http://www.w3.org/2000/svg" width="720" height="420" viewBox="0 0 720 420" fill="none">
<style>text{font-family:ui-monospace, 'SF Mono', SFMono-Regular, Menlo, Consolas, 'DejaVu Sans Mono', 'Liberation Mono', monospace;}</style>
<defs>
<pattern id="grid" width="24" height="24" patternUnits="userSpaceOnUse">
<path d="M24 0H0V24" stroke="#30435E" stroke-width="0.6" opacity="0.45"/>
</pattern>
<pattern id="scan" width="4" height="4" patternUnits="userSpaceOnUse">
<rect width="4" height="1" fill="#EDF5FF" opacity="0.025"/>
</pattern>
<filter id="glow" x="-20%" y="-20%" width="140%" height="140%">
<feGaussianBlur stdDeviation="3" result="b"/>
<feMerge><feMergeNode in="b"/><feMergeNode in="SourceGraphic"/></feMerge>
</filter>
<filter id="soft" x="-10%" y="-10%" width="120%" height="120%">
<feGaussianBlur stdDeviation="4"/>
</filter>
<radialGradient id="vig" cx="0.5" cy="0.45" r="0.75">
<stop offset="0.6" stop-color="#070A10" stop-opacity="0"/>
<stop offset="1" stop-color="#000000" stop-opacity="0.55"/>
</radialGradient>
<linearGradient id="sweep" x1="0" x2="0" y1="0" y2="1">
<stop offset="0" stop-color="#EDF5FF" stop-opacity="0"/>
<stop offset="0.5" stop-color="#EDF5FF" stop-opacity="0.045"/>
<stop offset="1" stop-color="#EDF5FF" stop-opacity="0"/>
</linearGradient>
<linearGradient id="fadeR" x1="0" x2="1" y1="0" y2="0">
<stop offset="0" stop-color="#2D8CFF" stop-opacity="0.9"/>
<stop offset="1" stop-color="#2D8CFF" stop-opacity="0"/>
</linearGradient>
<linearGradient id="fadeP" x1="0" x2="1" y1="0" y2="0">
<stop offset="0" stop-color="#FF4FCB" stop-opacity="0"/>
<stop offset="0.5" stop-color="#FF4FCB" stop-opacity="0.9"/>
<stop offset="1" stop-color="#FF4FCB" stop-opacity="0"/>
</linearGradient>
<linearGradient id="reflect" x1="0" x2="0" y1="0" y2="1">
<stop offset="0" stop-color="#FF4FCB" stop-opacity="0.28"/>
<stop offset="1" stop-color="#FF4FCB" stop-opacity="0"/>
</linearGradient>
<linearGradient id="sky" x1="0" x2="0" y1="0" y2="1">
<stop offset="0" stop-color="#070A10"/>
<stop offset="1" stop-color="#0E1830"/>
</linearGradient>
</defs>
<rect width="720" height="420" fill="#070A10"/>
<rect x="16" y="16" width="688" height="388" fill="none" stroke="#A7B8CE" stroke-width="3" opacity="0.3" filter="url(#soft)"/>
<rect x="16" y="16" width="688" height="388" fill="#070A10" stroke="#30435E" stroke-width="1.4"/>
<rect x="17" y="17" width="686" height="386" fill="url(#vig)"/>
<line x1="18" y1="64" x2="25" y2="64" stroke="#A7B8CE" stroke-width="1" opacity="0.8"/>
<line x1="702" y1="64" x2="695" y2="64" stroke="#A7B8CE" stroke-width="1" opacity="0.8"/>
<line x1="18" y1="88" x2="22" y2="88" stroke="#30435E" stroke-width="1" opacity="0.8"/>
<line x1="702" y1="88" x2="698" y2="88" stroke="#30435E" stroke-width="1" opacity="0.8"/>
<line x1="18" y1="112" x2="22" y2="112" stroke="#30435E" stroke-width="1" opacity="0.8"/>
<line x1="702" y1="112" x2="698" y2="112" stroke="#30435E" stroke-width="1" opacity="0.8"/>
<line x1="18" y1="136" x2="22" y2="136" stroke="#30435E" stroke-width="1" opacity="0.8"/>
<line x1="702" y1="136" x2="698" y2="136" stroke="#30435E" stroke-width="1" opacity="0.8"/>
<line x1="18" y1="160" x2="25" y2="160" stroke="#A7B8CE" stroke-width="1" opacity="0.8"/>
<line x1="702" y1="160" x2="695" y2="160" stroke="#A7B8CE" stroke-width="1" opacity="0.8"/>
<line x1="18" y1="184" x2="22" y2="184" stroke="#30435E" stroke-width="1" opacity="0.8"/>
<line x1="702" y1="184" x2="698" y2="184" stroke="#30435E" stroke-width="1" opacity="0.8"/>
<line x1="18" y1="208" x2="22" y2="208" stroke="#30435E" stroke-width="1" opacity="0.8"/>
<line x1="702" y1="208" x2="698" y2="208" stroke="#30435E" stroke-width="1" opacity="0.8"/>
<line x1="18" y1="232" x2="22" y2="232" stroke="#30435E" stroke-width="1" opacity="0.8"/>
<line x1="702" y1="232" x2="698" y2="232" stroke="#30435E" stroke-width="1" opacity="0.8"/>
<line x1="18" y1="256" x2="25" y2="256" stroke="#A7B8CE" stroke-width="1" opacity="0.8"/>
<line x1="702" y1="256" x2="695" y2="256" stroke="#A7B8CE" stroke-width="1" opacity="0.8"/>
<line x1="18" y1="280" x2="22" y2="280" stroke="#30435E" stroke-width="1" opacity="0.8"/>
<line x1="702" y1="280" x2="698" y2="280" stroke="#30435E" stroke-width="1" opacity="0.8"/>
<line x1="18" y1="304" x2="22" y2="304" stroke="#30435E" stroke-width="1" opacity="0.8"/>
<line x1="702" y1="304" x2="698" y2="304" stroke="#30435E" stroke-width="1" opacity="0.8"/>
<line x1="18" y1="328" x2="22" y2="328" stroke="#30435E" stroke-width="1" opacity="0.8"/>
<line x1="702" y1="328" x2="698" y2="328" stroke="#30435E" stroke-width="1" opacity="0.8"/>
<line x1="18" y1="352" x2="25" y2="352" stroke="#A7B8CE" stroke-width="1" opacity="0.8"/>
<line x1="702" y1="352" x2="695" y2="352" stroke="#A7B8CE" stroke-width="1" opacity="0.8"/>
<line x1="18" y1="376" x2="22" y2="376" stroke="#30435E" stroke-width="1" opacity="0.8"/>
<line x1="702" y1="376" x2="698" y2="376" stroke="#30435E" stroke-width="1" opacity="0.8"/>
<rect x="28" y="28" width="664" height="364" fill="none" stroke="#30435E" stroke-width="1" opacity="0.7"/>
<path d="M16 38V16H38" stroke="#A7B8CE" stroke-width="2.4" opacity="1"/><path d="M704 38V16H682" stroke="#A7B8CE" stroke-width="2.4" opacity="1"/><path d="M16 382V404H38" stroke="#A7B8CE" stroke-width="2.4" opacity="1"/><path d="M704 382V404H682" stroke="#A7B8CE" stroke-width="2.4" opacity="1"/>
<path d="M40 50V40H50" stroke="#FF4FCB" stroke-width="1.2" opacity="0.8"/><path d="M680 50V40H670" stroke="#FF4FCB" stroke-width="1.2" opacity="0.8"/><path d="M40 370V380H50" stroke="#FF4FCB" stroke-width="1.2" opacity="0.8"/><path d="M680 370V380H670" stroke="#FF4FCB" stroke-width="1.2" opacity="0.8"/>
<rect x="28" y="28" width="664" height="364" fill="url(#scan)"/>
<circle cx="624" cy="58" r="3.8" fill="#C6FF3A"><animate attributeName="opacity" values="1;0.3;1" dur="2.8s" repeatCount="indefinite"/></circle>
<circle cx="638" cy="58" r="3.8" fill="#FF4FCB"></circle>
<circle cx="652" cy="58" r="3.8" fill="#30435E"></circle>
<text x="58" y="122" font-size="14" fill="#A7B8CE" xml:space="preserve">        .---------.</text>
<text x="58" y="139" font-size="14" fill="#B0AECE" xml:space="preserve">       /  .-----.  \</text>
<text x="58" y="156" font-size="14" fill="#B9A3CD" xml:space="preserve">       | |       | |</text>
<text x="58" y="173" font-size="14" fill="#C198CD" xml:space="preserve">       | |       | |</text>
<text x="58" y="190" font-size="14" fill="#CA8ECD" xml:space="preserve">    .--'-'-------'-'--.</text>
<text x="58" y="207" font-size="14" fill="#D384CC" xml:space="preserve">    |                 |</text>
<text x="58" y="224" font-size="14" fill="#DC79CC" xml:space="preserve">    |      .---.      |</text>
<text x="58" y="241" font-size="14" fill="#E56ECC" xml:space="preserve">    |      |   |      |</text>
<text x="58" y="258" font-size="14" fill="#ED64CC" xml:space="preserve">    |      '-.-'      |</text>
<text x="58" y="275" font-size="14" fill="#F65ACB" xml:space="preserve">    |        |        |</text>
<text x="58" y="292" font-size="14" fill="#FF4FCB" xml:space="preserve">    '-----------------'</text>
<text x="300" y="150" font-size="64" fill="#EDF5FF" font-weight="bold" text-anchor="start" letter-spacing="12">ECIS</text>
<text x="302" y="190" font-size="22" fill="#A7B8CE" font-weight="normal" text-anchor="start" letter-spacing="2">PRIVATE R&amp;D SYSTEM</text>
<line x1="302" y1="214" x2="660" y2="214" stroke="#30435E" stroke-width="1"/>
<text x="302" y="256" font-size="22" fill="#A7B8CE" font-weight="normal" text-anchor="start">STATUS</text><text x="450" y="256" font-size="22" fill="#C6FF3A" font-weight="bold" text-anchor="start" letter-spacing="1">ACTIVE</text>
<text x="302" y="296" font-size="22" fill="#A7B8CE" font-weight="normal" text-anchor="start">ACCESS</text><text x="450" y="296" font-size="22" fill="#FF4FCB" font-weight="bold" text-anchor="start" letter-spacing="1">RESTRICTED</text>
<text x="302" y="336" font-size="22" fill="#A7B8CE" font-weight="normal" text-anchor="start">DETAILS</text><text x="450" y="336" font-size="22" fill="#A7B8CE" font-weight="bold" text-anchor="start" letter-spacing="1">UNDISCLOSED</text>
<rect x="58" y="348" width="16" height="16" fill="#A7B8CE" stroke="#30435E" stroke-width="1" opacity="0.3"/>
<rect x="80" y="348" width="16" height="16" fill="#B2ABCE" stroke="#30435E" stroke-width="1" opacity="0.37"/>
<rect x="102" y="348" width="16" height="16" fill="#BD9ECD" stroke="#30435E" stroke-width="1" opacity="0.44"/>
<rect x="124" y="348" width="16" height="16" fill="#C891CD" stroke="#30435E" stroke-width="1" opacity="0.51"/>
<rect x="146" y="348" width="16" height="16" fill="#D384CC" stroke="#30435E" stroke-width="1" opacity="0.58"/>
<rect x="168" y="348" width="16" height="16" fill="#DE76CC" stroke="#30435E" stroke-width="1" opacity="0.65"/>
<rect x="190" y="348" width="16" height="16" fill="#E969CC" stroke="#30435E" stroke-width="1" opacity="0.72"/>
<rect x="212" y="348" width="16" height="16" fill="#F45CCB" stroke="#30435E" stroke-width="1" opacity="0.79"/>
<rect x="234" y="348" width="16" height="16" fill="#FF4FCB" stroke="#30435E" stroke-width="1" opacity="0.86"/>
<rect x="56" y="346" width="20" height="20" fill="none" stroke="#EDF5FF" stroke-width="1.2" opacity="0.7"><animate attributeName="x" values="56;78;100;122;144;166;188;210;232;56" keyTimes="0;0.0769;0.1538;0.2308;0.3077;0.3846;0.4615;0.5385;0.6154;1" calcMode="discrete" dur="5s" repeatCount="indefinite"/></rect>
<clipPath id="k33"><rect x="17" y="17" width="686" height="386"/></clipPath><g clip-path="url(#k33)"><rect x="17" y="-120" width="686" height="120" fill="url(#sweep)"><animateTransform attributeName="transform" type="translate" values="0 0;0 540" dur="7s" repeatCount="indefinite"/></rect></g>
</svg>
