<svg xmlns="http://www.w3.org/2000/svg" width="720" height="240" viewBox="0 0 720 240" fill="none">
<style>text{font-family:ui-monospace, 'SF Mono', SFMono-Regular, Menlo, Consolas, 'DejaVu Sans Mono', 'Liberation Mono', monospace;}</style>
<defs>
<pattern id="grid" width="24" height="24" patternUnits="userSpaceOnUse">
<path d="M24 0H0V24" stroke="#30435E" stroke-width="0.6" opacity="0.45"/>
</pattern>
<pattern id="scan" width="4" height="4" patternUnits="userSpaceOnUse">
<rect width="4" height="1" fill="#EDF5FF" opacity="0.025"/>
</pattern>
<filter id="glow" x="-20%" y="-20%" width="140%" height="140%">
<feGaussianBlur stdDeviation="3" result="b"/>
<feMerge><feMergeNode in="b"/><feMergeNode in="SourceGraphic"/></feMerge>
</filter>
<linearGradient id="fadeR" x1="0" x2="1" y1="0" y2="0">
<stop offset="0" stop-color="#2D8CFF" stop-opacity="0.9"/>
<stop offset="1" stop-color="#2D8CFF" stop-opacity="0"/>
</linearGradient>
<linearGradient id="fadeP" x1="0" x2="1" y1="0" y2="0">
<stop offset="0" stop-color="#FF4FCB" stop-opacity="0"/>
<stop offset="0.5" stop-color="#FF4FCB" stop-opacity="0.9"/>
<stop offset="1" stop-color="#FF4FCB" stop-opacity="0"/>
</linearGradient>
<linearGradient id="reflect" x1="0" x2="0" y1="0" y2="1">
<stop offset="0" stop-color="#FF4FCB" stop-opacity="0.28"/>
<stop offset="1" stop-color="#FF4FCB" stop-opacity="0"/>
</linearGradient>
<linearGradient id="sky" x1="0" x2="0" y1="0" y2="1">
<stop offset="0" stop-color="#070A10"/>
<stop offset="1" stop-color="#0E1830"/>
</linearGradient>
</defs>
<rect width="720" height="240" fill="#070A10"/>
<rect x="0" y="224" width="15" height="15" fill="#172235"/>
<rect x="0" y="208" width="15" height="15" fill="#172235"/>
<rect x="0" y="192" width="15" height="15" fill="#172235"/>
<rect x="0" y="176" width="15" height="15" fill="#101724"/>
<rect x="0" y="160" width="15" height="15" fill="#C6FF3A" opacity="0.85"/>
<rect x="16" y="224" width="15" height="15" fill="#172235"/>
<rect x="16" y="208" width="15" height="15" fill="#172235"/>
<rect x="16" y="192" width="15" height="15" fill="#172235"/>
<rect x="16" y="176" width="15" height="15" fill="#101724"/>
<rect x="16" y="160" width="15" height="15" fill="#C6FF3A" opacity="0.85"/>
<rect x="32" y="224" width="15" height="15" fill="#172235"/>
<rect x="32" y="208" width="15" height="15" fill="#172235"/>
<rect x="32" y="192" width="15" height="15" fill="#172235"/>
<rect x="32" y="176" width="15" height="15" fill="#101724"/>
<rect x="32" y="160" width="15" height="15" fill="#C6FF3A" opacity="0.85"/>
<rect x="48" y="224" width="15" height="15" fill="#172235"/>
<rect x="48" y="208" width="15" height="15" fill="#172235"/>
<rect x="48" y="192" width="15" height="15" fill="#172235"/>
<rect x="48" y="176" width="15" height="15" fill="#172235"/>
<rect x="48" y="160" width="15" height="15" fill="#101724"/>
<rect x="48" y="144" width="15" height="15" fill="#C6FF3A" opacity="0.85"/>
<rect x="64" y="224" width="15" height="15" fill="#172235"/>
<rect x="64" y="208" width="15" height="15" fill="#172235"/>
<rect x="64" y="192" width="15" height="15" fill="#172235"/>
<rect x="64" y="176" width="15" height="15" fill="#101724"/>
<rect x="64" y="160" width="15" height="15" fill="#C6FF3A" opacity="0.85"/>
<rect x="80" y="224" width="15" height="15" fill="#172235"/>
<rect x="80" y="208" width="15" height="15" fill="#172235"/>
<rect x="80" y="192" width="15" height="15" fill="#101724"/>
<rect x="85" y="197" width="5" height="5" fill="#FF4FCB"/>
<rect x="80" y="176" width="15" height="15" fill="#C6FF3A" opacity="0.85"/>
<rect x="96" y="224" width="15" height="15" fill="#172235"/>
<rect x="96" y="208" width="15" height="15" fill="#172235"/>
<rect x="96" y="192" width="15" height="15" fill="#172235"/>
<rect x="96" y="176" width="15" height="15" fill="#101724"/>
<rect x="96" y="160" width="15" height="15" fill="#C6FF3A" opacity="0.85"/>
<rect x="112" y="224" width="15" height="15" fill="#172235"/>
<rect x="112" y="208" width="15" height="15" fill="#172235"/>
<rect x="112" y="192" width="15" height="15" fill="#172235"/>
<rect x="117" y="197" width="5" height="5" fill="#FF4FCB"/>
<rect x="112" y="176" width="15" height="15" fill="#101724"/>
<rect x="112" y="160" width="15" height="15" fill="#C6FF3A" opacity="0.85"/>
<rect x="128" y="224" width="15" height="15" fill="#172235"/>
<rect x="128" y="208" width="15" height="15" fill="#172235"/>
<rect x="133" y="213" width="5" height="5" fill="#FF4FCB"/>
<rect x="128" y="192" width="15" height="15" fill="#172235"/>
<rect x="128" y="176" width="15" height="15" fill="#101724"/>
<rect x="128" y="160" width="15" height="15" fill="#C6FF3A" opacity="0.85"/>
<rect x="144" y="224" width="15" height="15" fill="#172235"/>
<rect x="144" y="208" width="15" height="15" fill="#172235"/>
<rect x="144" y="192" width="15" height="15" fill="#172235"/>
<rect x="144" y="176" width="15" height="15" fill="#101724"/>
<rect x="144" y="160" width="15" height="15" fill="#C6FF3A" opacity="0.85"/>
<rect x="160" y="224" width="15" height="15" fill="#172235"/>
<rect x="160" y="208" width="15" height="15" fill="#172235"/>
<rect x="160" y="192" width="15" height="15" fill="#172235"/>
<rect x="160" y="176" width="15" height="15" fill="#172235"/>
<rect x="160" y="160" width="15" height="15" fill="#101724"/>
<rect x="160" y="144" width="15" height="15" fill="#C6FF3A" opacity="0.85"/>
<rect x="176" y="224" width="15" height="15" fill="#172235"/>
<rect x="176" y="208" width="15" height="15" fill="#172235"/>
<rect x="176" y="192" width="15" height="15" fill="#172235"/>
<rect x="176" y="176" width="15" height="15" fill="#172235"/>
<rect x="176" y="160" width="15" height="15" fill="#172235"/>
<rect x="176" y="144" width="15" height="15" fill="#101724"/>
<rect x="176" y="128" width="15" height="15" fill="#C6FF3A" opacity="0.85"/>
<rect x="192" y="224" width="15" height="15" fill="#172235"/>
<rect x="192" y="208" width="15" height="15" fill="#172235"/>
<rect x="192" y="192" width="15" height="15" fill="#172235"/>
<rect x="192" y="176" width="15" height="15" fill="#172235"/>
<rect x="192" y="160" width="15" height="15" fill="#172235"/>
<rect x="192" y="144" width="15" height="15" fill="#172235"/>
<rect x="192" y="128" width="15" height="15" fill="#101724"/>
<rect x="192" y="112" width="15" height="15" fill="#C6FF3A" opacity="0.85"/>
<rect x="208" y="224" width="15" height="15" fill="#172235"/>
<rect x="208" y="208" width="15" height="15" fill="#172235"/>
<rect x="208" y="192" width="15" height="15" fill="#172235"/>
<rect x="208" y="176" width="15" height="15" fill="#172235"/>
<rect x="208" y="160" width="15" height="15" fill="#172235"/>
<rect x="208" y="144" width="15" height="15" fill="#172235"/>
<rect x="208" y="128" width="15" height="15" fill="#101724"/>
<rect x="208" y="112" width="15" height="15" fill="#C6FF3A" opacity="0.85"/>
<rect x="224" y="224" width="15" height="15" fill="#172235"/>
<rect x="224" y="208" width="15" height="15" fill="#172235"/>
<rect x="224" y="192" width="15" height="15" fill="#172235"/>
<rect x="224" y="176" width="15" height="15" fill="#172235"/>
<rect x="224" y="160" width="15" height="15" fill="#172235"/>
<rect x="224" y="144" width="15" height="15" fill="#172235"/>
<rect x="224" y="128" width="15" height="15" fill="#101724"/>
<rect x="224" y="112" width="15" height="15" fill="#C6FF3A" opacity="0.85"/>
<rect x="240" y="224" width="15" height="15" fill="#172235"/>
<rect x="240" y="208" width="15" height="15" fill="#172235"/>
<rect x="240" y="192" width="15" height="15" fill="#172235"/>
<rect x="245" y="197" width="5" height="5" fill="#2D8CFF"/>
<rect x="240" y="176" width="15" height="15" fill="#172235"/>
<rect x="240" y="160" width="15" height="15" fill="#172235"/>
<rect x="240" y="144" width="15" height="15" fill="#172235"/>
<rect x="240" y="128" width="15" height="15" fill="#101724"/>
<rect x="240" y="112" width="15" height="15" fill="#C6FF3A" opacity="0.85"/>
<rect x="256" y="224" width="15" height="15" fill="#172235"/>
<rect x="256" y="208" width="15" height="15" fill="#172235"/>
<rect x="256" y="192" width="15" height="15" fill="#172235"/>
<rect x="256" y="176" width="15" height="15" fill="#172235"/>
<rect x="256" y="160" width="15" height="15" fill="#172235"/>
<rect x="256" y="144" width="15" height="15" fill="#172235"/>
<rect x="256" y="128" width="15" height="15" fill="#101724"/>
<rect x="256" y="112" width="15" height="15" fill="#C6FF3A" opacity="0.85"/>
<rect x="272" y="224" width="15" height="15" fill="#172235"/>
<rect x="277" y="229" width="5" height="5" fill="#FF4FCB"/>
<rect x="272" y="208" width="15" height="15" fill="#172235"/>
<rect x="272" y="192" width="15" height="15" fill="#172235"/>
<rect x="272" y="176" width="15" height="15" fill="#172235"/>
<rect x="272" y="160" width="15" height="15" fill="#172235"/>
<rect x="272" y="144" width="15" height="15" fill="#101724"/>
<rect x="272" y="128" width="15" height="15" fill="#C6FF3A" opacity="0.85"/>
<rect x="288" y="224" width="15" height="15" fill="#172235"/>
<rect x="288" y="208" width="15" height="15" fill="#172235"/>
<rect x="288" y="192" width="15" height="15" fill="#172235"/>
<rect x="288" y="176" width="15" height="15" fill="#172235"/>
<rect x="288" y="160" width="15" height="15" fill="#101724"/>
<rect x="288" y="144" width="15" height="15" fill="#C6FF3A" opacity="0.85"/>
<rect x="304" y="224" width="15" height="15" fill="#172235"/>
<rect x="304" y="208" width="15" height="15" fill="#172235"/>
<rect x="304" y="192" width="15" height="15" fill="#172235"/>
<rect x="304" y="176" width="15" height="15" fill="#172235"/>
<rect x="304" y="160" width="15" height="15" fill="#101724"/>
<rect x="304" y="144" width="15" height="15" fill="#C6FF3A" opacity="0.85"/>
<rect x="320" y="224" width="15" height="15" fill="#172235"/>
<rect x="320" y="208" width="15" height="15" fill="#172235"/>
<rect x="320" y="192" width="15" height="15" fill="#172235"/>
<rect x="320" y="176" width="15" height="15" fill="#101724"/>
<rect x="320" y="160" width="15" height="15" fill="#C6FF3A" opacity="0.85"/>
<rect x="336" y="224" width="15" height="15" fill="#172235"/>
<rect x="336" y="208" width="15" height="15" fill="#172235"/>
<rect x="336" y="192" width="15" height="15" fill="#172235"/>
<rect x="336" y="176" width="15" height="15" fill="#101724"/>
<rect x="336" y="160" width="15" height="15" fill="#C6FF3A" opacity="0.85"/>
<rect x="352" y="224" width="15" height="15" fill="#172235"/>
<rect x="352" y="208" width="15" height="15" fill="#172235"/>
<rect x="352" y="192" width="15" height="15" fill="#101724"/>
<rect x="352" y="176" width="15" height="15" fill="#C6FF3A" opacity="0.85"/>
<rect x="368" y="224" width="15" height="15" fill="#172235"/>
<rect x="368" y="208" width="15" height="15" fill="#172235"/>
<rect x="368" y="192" width="15" height="15" fill="#101724"/>
<rect x="368" y="176" width="15" height="15" fill="#C6FF3A" opacity="0.85"/>
<rect x="384" y="224" width="15" height="15" fill="#172235"/>
<rect x="384" y="208" width="15" height="15" fill="#172235"/>
<rect x="384" y="192" width="15" height="15" fill="#172235"/>
<rect x="384" y="176" width="15" height="15" fill="#101724"/>
<rect x="384" y="160" width="15" height="15" fill="#C6FF3A" opacity="0.85"/>
<rect x="400" y="224" width="15" height="15" fill="#172235"/>
<rect x="400" y="208" width="15" height="15" fill="#172235"/>
<rect x="400" y="192" width="15" height="15" fill="#172235"/>
<rect x="400" y="176" width="15" height="15" fill="#172235"/>
<rect x="400" y="160" width="15" height="15" fill="#101724"/>
<rect x="400" y="144" width="15" height="15" fill="#C6FF3A" opacity="0.85"/>
<rect x="416" y="224" width="15" height="15" fill="#172235"/>
<rect x="416" y="208" width="15" height="15" fill="#172235"/>
<rect x="416" y="192" width="15" height="15" fill="#172235"/>
<rect x="421" y="197" width="5" height="5" fill="#2D8CFF"/>
<rect x="416" y="176" width="15" height="15" fill="#172235"/>
<rect x="416" y="160" width="15" height="15" fill="#172235"/>
<rect x="416" y="144" width="15" height="15" fill="#101724"/>
<rect x="416" y="128" width="15" height="15" fill="#C6FF3A" opacity="0.85"/>
<rect x="432" y="224" width="15" height="15" fill="#172235"/>
<rect x="437" y="229" width="5" height="5" fill="#2D8CFF"/>
<rect x="432" y="208" width="15" height="15" fill="#172235"/>
<rect x="432" y="192" width="15" height="15" fill="#172235"/>
<rect x="432" y="176" width="15" height="15" fill="#172235"/>
<rect x="432" y="160" width="15" height="15" fill="#172235"/>
<rect x="432" y="144" width="15" height="15" fill="#172235"/>
<rect x="432" y="128" width="15" height="15" fill="#101724"/>
<rect x="432" y="112" width="15" height="15" fill="#C6FF3A" opacity="0.85"/>
<rect x="448" y="224" width="15" height="15" fill="#172235"/>
<rect x="448" y="208" width="15" height="15" fill="#172235"/>
<rect x="448" y="192" width="15" height="15" fill="#172235"/>
<rect x="448" y="176" width="15" height="15" fill="#172235"/>
<rect x="448" y="160" width="15" height="15" fill="#172235"/>
<rect x="453" y="165" width="5" height="5" fill="#FF4FCB"/>
<rect x="448" y="144" width="15" height="15" fill="#172235"/>
<rect x="448" y="128" width="15" height="15" fill="#101724"/>
<rect x="448" y="112" width="15" height="15" fill="#C6FF3A" opacity="0.85"/>
<rect x="464" y="224" width="15" height="15" fill="#172235"/>
<rect x="464" y="208" width="15" height="15" fill="#172235"/>
<rect x="469" y="213" width="5" height="5" fill="#FF4FCB"/>
<rect x="464" y="192" width="15" height="15" fill="#172235"/>
<rect x="464" y="176" width="15" height="15" fill="#172235"/>
<rect x="464" y="160" width="15" height="15" fill="#172235"/>
<rect x="464" y="144" width="15" height="15" fill="#172235"/>
<rect x="464" y="128" width="15" height="15" fill="#101724"/>
<rect x="464" y="112" width="15" height="15" fill="#C6FF3A" opacity="0.85"/>
<rect x="480" y="224" width="15" height="15" fill="#172235"/>
<rect x="480" y="208" width="15" height="15" fill="#172235"/>
<rect x="480" y="192" width="15" height="15" fill="#172235"/>
<rect x="480" y="176" width="15" height="15" fill="#172235"/>
<rect x="480" y="160" width="15" height="15" fill="#172235"/>
<rect x="480" y="144" width="15" height="15" fill="#172235"/>
<rect x="480" y="128" width="15" height="15" fill="#101724"/>
<rect x="480" y="112" width="15" height="15" fill="#C6FF3A" opacity="0.85"/>
<rect x="496" y="224" width="15" height="15" fill="#172235"/>
<rect x="496" y="208" width="15" height="15" fill="#172235"/>
<rect x="496" y="192" width="15" height="15" fill="#172235"/>
<rect x="496" y="176" width="15" height="15" fill="#172235"/>
<rect x="496" y="160" width="15" height="15" fill="#172235"/>
<rect x="496" y="144" width="15" height="15" fill="#101724"/>
<rect x="496" y="128" width="15" height="15" fill="#C6FF3A" opacity="0.85"/>
<rect x="512" y="224" width="15" height="15" fill="#172235"/>
<rect x="512" y="208" width="15" height="15" fill="#172235"/>
<rect x="512" y="192" width="15" height="15" fill="#172235"/>
<rect x="512" y="176" width="15" height="15" fill="#172235"/>
<rect x="517" y="181" width="5" height="5" fill="#2D8CFF"/>
<rect x="512" y="160" width="15" height="15" fill="#101724"/>
<rect x="517" y="165" width="5" height="5" fill="#2D8CFF"/>
<rect x="512" y="144" width="15" height="15" fill="#C6FF3A" opacity="0.85"/>
<rect x="528" y="224" width="15" height="15" fill="#172235"/>
<rect x="528" y="208" width="15" height="15" fill="#172235"/>
<rect x="528" y="192" width="15" height="15" fill="#172235"/>
<rect x="528" y="176" width="15" height="15" fill="#172235"/>
<rect x="533" y="181" width="5" height="5" fill="#2D8CFF"/>
<rect x="528" y="160" width="15" height="15" fill="#101724"/>
<rect x="528" y="144" width="15" height="15" fill="#C6FF3A" opacity="0.85"/>
<rect x="544" y="224" width="15" height="15" fill="#172235"/>
<rect x="549" y="229" width="5" height="5" fill="#FF4FCB"/>
<rect x="544" y="208" width="15" height="15" fill="#172235"/>
<rect x="544" y="192" width="15" height="15" fill="#172235"/>
<rect x="549" y="197" width="5" height="5" fill="#FF4FCB"/>
<rect x="544" y="176" width="15" height="15" fill="#172235"/>
<rect x="544" y="160" width="15" height="15" fill="#172235"/>
<rect x="544" y="144" width="15" height="15" fill="#101724"/>
<rect x="544" y="128" width="15" height="15" fill="#C6FF3A" opacity="0.85"/>
<rect x="560" y="224" width="15" height="15" fill="#172235"/>
<rect x="560" y="208" width="15" height="15" fill="#172235"/>
<rect x="560" y="192" width="15" height="15" fill="#172235"/>
<rect x="560" y="176" width="15" height="15" fill="#172235"/>
<rect x="560" y="160" width="15" height="15" fill="#172235"/>
<rect x="560" y="144" width="15" height="15" fill="#101724"/>
<rect x="560" y="128" width="15" height="15" fill="#C6FF3A" opacity="0.85"/>
<rect x="576" y="224" width="15" height="15" fill="#172235"/>
<rect x="576" y="208" width="15" height="15" fill="#172235"/>
<rect x="576" y="192" width="15" height="15" fill="#172235"/>
<rect x="576" y="176" width="15" height="15" fill="#172235"/>
<rect x="576" y="160" width="15" height="15" fill="#172235"/>
<rect x="576" y="144" width="15" height="15" fill="#101724"/>
<rect x="576" y="128" width="15" height="15" fill="#C6FF3A" opacity="0.85"/>
<rect x="592" y="224" width="15" height="15" fill="#172235"/>
<rect x="592" y="208" width="15" height="15" fill="#172235"/>
<rect x="592" y="192" width="15" height="15" fill="#172235"/>
<rect x="592" y="176" width="15" height="15" fill="#172235"/>
<rect x="592" y="160" width="15" height="15" fill="#172235"/>
<rect x="592" y="144" width="15" height="15" fill="#172235"/>
<rect x="592" y="128" width="15" height="15" fill="#101724"/>
<rect x="592" y="112" width="15" height="15" fill="#C6FF3A" opacity="0.85"/>
<rect x="608" y="224" width="15" height="15" fill="#172235"/>
<rect x="608" y="208" width="15" height="15" fill="#172235"/>
<rect x="608" y="192" width="15" height="15" fill="#172235"/>
<rect x="608" y="176" width="15" height="15" fill="#172235"/>
<rect x="608" y="160" width="15" height="15" fill="#172235"/>
<rect x="608" y="144" width="15" height="15" fill="#172235"/>
<rect x="608" y="128" width="15" height="15" fill="#101724"/>
<rect x="608" y="112" width="15" height="15" fill="#C6FF3A" opacity="0.85"/>
<rect x="624" y="224" width="15" height="15" fill="#172235"/>
<rect x="624" y="208" width="15" height="15" fill="#172235"/>
<rect x="624" y="192" width="15" height="15" fill="#172235"/>
<rect x="624" y="176" width="15" height="15" fill="#172235"/>
<rect x="624" y="160" width="15" height="15" fill="#172235"/>
<rect x="624" y="144" width="15" height="15" fill="#172235"/>
<rect x="624" y="128" width="15" height="15" fill="#101724"/>
<rect x="624" y="112" width="15" height="15" fill="#C6FF3A" opacity="0.85"/>
<rect x="640" y="224" width="15" height="15" fill="#172235"/>
<rect x="640" y="208" width="15" height="15" fill="#172235"/>
<rect x="640" y="192" width="15" height="15" fill="#172235"/>
<rect x="640" y="176" width="15" height="15" fill="#172235"/>
<rect x="640" y="160" width="15" height="15" fill="#172235"/>
<rect x="640" y="144" width="15" height="15" fill="#172235"/>
<rect x="640" y="128" width="15" height="15" fill="#101724"/>
<rect x="640" y="112" width="15" height="15" fill="#C6FF3A" opacity="0.85"/>
<rect x="656" y="224" width="15" height="15" fill="#172235"/>
<rect x="656" y="208" width="15" height="15" fill="#172235"/>
<rect x="656" y="192" width="15" height="15" fill="#172235"/>
<rect x="656" y="176" width="15" height="15" fill="#172235"/>
<rect x="656" y="160" width="15" height="15" fill="#172235"/>
<rect x="656" y="144" width="15" height="15" fill="#172235"/>
<rect x="656" y="128" width="15" height="15" fill="#101724"/>
<rect x="656" y="112" width="15" height="15" fill="#C6FF3A" opacity="0.85"/>
<rect x="672" y="224" width="15" height="15" fill="#172235"/>
<rect x="672" y="208" width="15" height="15" fill="#172235"/>
<rect x="672" y="192" width="15" height="15" fill="#172235"/>
<rect x="672" y="176" width="15" height="15" fill="#172235"/>
<rect x="672" y="160" width="15" height="15" fill="#172235"/>
<rect x="672" y="144" width="15" height="15" fill="#172235"/>
<rect x="677" y="149" width="5" height="5" fill="#FF4FCB"/>
<rect x="672" y="128" width="15" height="15" fill="#101724"/>
<rect x="672" y="112" width="15" height="15" fill="#C6FF3A" opacity="0.85"/>
<rect x="688" y="224" width="15" height="15" fill="#172235"/>
<rect x="688" y="208" width="15" height="15" fill="#172235"/>
<rect x="688" y="192" width="15" height="15" fill="#172235"/>
<rect x="688" y="176" width="15" height="15" fill="#172235"/>
<rect x="688" y="160" width="15" height="15" fill="#172235"/>
<rect x="688" y="144" width="15" height="15" fill="#172235"/>
<rect x="688" y="128" width="15" height="15" fill="#101724"/>
<rect x="688" y="112" width="15" height="15" fill="#C6FF3A" opacity="0.85"/>
<rect x="704" y="224" width="15" height="15" fill="#172235"/>
<rect x="704" y="208" width="15" height="15" fill="#172235"/>
<rect x="709" y="213" width="5" height="5" fill="#FF4FCB"/>
<rect x="704" y="192" width="15" height="15" fill="#172235"/>
<rect x="704" y="176" width="15" height="15" fill="#172235"/>
<rect x="704" y="160" width="15" height="15" fill="#172235"/>
<rect x="704" y="144" width="15" height="15" fill="#172235"/>
<rect x="704" y="128" width="15" height="15" fill="#101724"/>
<rect x="704" y="112" width="15" height="15" fill="#C6FF3A" opacity="0.85"/>
<rect x="720" y="224" width="15" height="15" fill="#172235"/>
<rect x="725" y="229" width="5" height="5" fill="#FF4FCB"/>
<rect x="720" y="208" width="15" height="15" fill="#172235"/>
<rect x="720" y="192" width="15" height="15" fill="#172235"/>
<rect x="720" y="176" width="15" height="15" fill="#172235"/>
<rect x="720" y="160" width="15" height="15" fill="#172235"/>
<rect x="720" y="144" width="15" height="15" fill="#101724"/>
<rect x="720" y="128" width="15" height="15" fill="#C6FF3A" opacity="0.85"/>
<rect x="24" y="20" width="500" height="124" fill="#070A10" stroke="#FF4FCB" stroke-width="1.4"/>
<text x="44" y="64" font-size="32" fill="#FF4FCB" font-weight="bold" text-anchor="start" letter-spacing="2">SIDE FREQUENCIES</text>
<text x="44" y="100" font-size="23" fill="#EDF5FF" font-weight="normal" text-anchor="start">minecraft · terraria · weird</text>
<text x="44" y="128" font-size="23" fill="#EDF5FF" font-weight="normal" text-anchor="start">corners of the internet</text>
</svg>
